<svg width="31" height="24" viewBox="0 0 31 24" fill="none" xmlns="http://www.w3.org/2000/svg">
<path d="M24.6699 21L16.7561 14.7C16.1281 15.1 15.4058 15.4167 14.5893 15.65C13.7728 15.8833 12.9039 16 11.9827 16C9.70072 16 7.76959 15.3707 6.18934 14.112C4.6091 12.8533 3.81856 11.316 3.81772 9.5C3.81772 7.68333 4.60826 6.146 6.18934 4.888C7.77043 3.63 9.70156 3.00067 11.9827 3C14.2648 3 16.1959 3.62933 17.7761 4.888C19.3564 6.14667 20.1469 7.684 20.1478 9.5C20.1478 10.2333 20.0012 10.925 19.7081 11.575C19.415 12.225 19.0172 12.8 18.5148 13.3L26.4286 19.6L24.6699 21ZM11.9827 14C13.5529 14 14.8878 13.5623 15.9874 12.687C17.0869 11.8117 17.6363 10.7493 17.6355 9.5C17.6355 8.25 17.0857 7.18733 15.9861 6.312C14.8866 5.43667 13.5521 4.99933 11.9827 5C10.4125 5 9.07767 5.43767 7.97811 6.313C6.87856 7.18833 6.3292 8.25067 6.33003 9.5C6.33003 10.75 6.87981 11.8127 7.97937 12.688C9.07893 13.5633 10.4134 14.0007 11.9827 14Z" fill="black"/>
</svg>
